<?xml version="1.0" encoding="UTF-8" standalone="no"?>
<svg width="37px" height="10px" viewBox="0 0 37 10" version="1.1" xmlns="http://www.w3.org/2000/svg" xmlns:xlink="http://www.w3.org/1999/xlink">
    <!-- Generator: Sketch 3.6.1 (26313) - http://www.bohemiancoding.com/sketch -->
    <title>Combined Shape</title>
    <desc>Created with Sketch.</desc>
    <defs></defs>
    <g id="Main" stroke="none" stroke-width="1" fill="none" fill-rule="evenodd">
        <g id="Mobile" transform="translate(-31.000000, -691.000000)" stroke="#979797">
            <g id="footer" transform="translate(0.000000, 610.000000)">
                <g id="icons" transform="translate(31.000000, 74.000000)">
                    <g id="more" transform="translate(18.000000, 12.000000) rotate(-270.000000) translate(-18.000000, -12.000000) translate(14.000000, -6.000000)">
                        <path d="M4,21.6363636 C6.209139,21.6363636 8,19.8455026 8,17.6363636 C8,15.4272246 6.209139,13.6363636 4,13.6363636 C1.790861,13.6363636 -1.77635684e-15,15.4272246 -1.77635684e-15,17.6363636 C-1.77635684e-15,19.8455026 1.790861,21.6363636 4,21.6363636 Z M4,35.2727273 C6.209139,35.2727273 8,33.4818663 8,31.2727273 C8,29.0635883 6.209139,27.2727273 4,27.2727273 C1.790861,27.2727273 8.8817842e-16,29.0635883 8.8817842e-16,31.2727273 C8.8817842e-16,33.4818663 1.790861,35.2727273 4,35.2727273 Z M4,8 C6.209139,8 8,6.209139 8,4 C8,1.790861 6.209139,0 4,0 C1.790861,0 -3.55271368e-15,1.790861 -3.55271368e-15,4 C-3.55271368e-15,6.209139 1.790861,8 4,8 Z" id="Combined-Shape"></path>
                    </g>
                </g>
            </g>
        </g>
    </g>
</svg>